<svg id="그룹_36969" data-name="그룹 36969" xmlns="http://www.w3.org/2000/svg" xmlns:xlink="http://www.w3.org/1999/xlink" width="50" height="50" viewBox="0 0 50 50">
  <defs>
    <clipPath id="clip-path">
      <rect id="사각형_81" data-name="사각형 81" width="34" height="34" fill="none"/>
    </clipPath>
  </defs>
  <rect id="사각형_27" data-name="사각형 27" width="50" height="50" rx="15" fill="#ffbf2e"/>
  <g id="그룹_102" data-name="그룹 102" transform="translate(8 8)">
    <g id="그룹_102-2" data-name="그룹 102" clip-path="url(#clip-path)">
      <path id="패스_21" data-name="패스 21" d="M33.487,21.113A16.994,16.994,0,1,1,21.107.509a17,17,0,0,1,12.38,20.6Z" transform="translate(0.005 0)" fill="#f7931a"/>
      <path id="패스_22" data-name="패스 22" d="M34.139,21.484c.338-2.262-1.384-3.478-3.739-4.289l.764-3.064L29.3,13.666l-.744,2.983c-.489-.122-.993-.237-1.494-.351l.749-3-1.864-.465-.765,3.063c-.406-.092-.8-.184-1.191-.28l0-.01-2.573-.642-.5,1.992s1.384.317,1.355.337a.992.992,0,0,1,.869,1.085l-.873,3.5-1.22,4.89a.68.68,0,0,1-.855.443c.018.027-1.356-.338-1.356-.338l-.926,2.135,2.428.605c.452.113.894.232,1.329.343l-.772,3.1,1.863.465.765-3.066c.508.138,1,.265,1.486.386l-.762,3.052,1.865.464.772-3.093c3.181.6,5.573.359,6.579-2.517.811-2.316-.04-3.652-1.713-4.524a2.977,2.977,0,0,0,2.381-2.74Zm-4.262,5.976c-.577,2.316-4.477,1.065-5.742.75L25.16,24.1c1.264.316,5.318.94,4.718,3.356Zm.576-6.009c-.526,2.107-3.772,1.036-4.825.774l.928-3.724c1.054.263,4.445.753,3.9,2.95" transform="translate(-9.64 -6.906)" fill="#fff"/>
    </g>
  </g>
</svg>
