<svg id="그룹_36968" data-name="그룹 36968" xmlns="http://www.w3.org/2000/svg" xmlns:xlink="http://www.w3.org/1999/xlink" width="50" height="50" viewBox="0 0 50 50">
  <defs>
    <clipPath id="clip-path">
      <rect id="사각형_87" data-name="사각형 87" width="34" height="34" fill="none"/>
    </clipPath>
    <clipPath id="clip-path-3">
      <rect id="사각형_82" data-name="사각형 82" width="7.966" height="12.984" fill="none"/>
    </clipPath>
    <clipPath id="clip-path-4">
      <rect id="사각형_83" data-name="사각형 83" width="7.971" height="11.028" fill="none"/>
    </clipPath>
    <clipPath id="clip-path-5">
      <rect id="사각형_84" data-name="사각형 84" width="7.966" height="8.182" fill="none"/>
    </clipPath>
    <clipPath id="clip-path-6">
      <rect id="사각형_85" data-name="사각형 85" width="7.967" height="8.182" fill="none"/>
    </clipPath>
  </defs>
  <rect id="사각형_27" data-name="사각형 27" width="50" height="50" rx="15" fill="#c1ccf6"/>
  <g id="그룹_106" data-name="그룹 106" transform="translate(8 8)">
    <g id="그룹_120" data-name="그룹 120" clip-path="url(#clip-path)">
      <g id="그룹_119" data-name="그룹 119" transform="translate(0 0)">
        <g id="그룹_118" data-name="그룹 118" clip-path="url(#clip-path)">
          <path id="패스_23" data-name="패스 23" d="M17,0A17,17,0,1,1,0,17,17,17,0,0,1,17,0" transform="translate(0 0)" fill="#627eea" fill-rule="evenodd"/>
          <g id="그룹_108" data-name="그룹 108" transform="translate(17.529 4.25)" opacity="0.602">
            <g id="그룹_107" data-name="그룹 107">
              <g id="그룹_106-2" data-name="그룹 106" clip-path="url(#clip-path-3)">
                <path id="패스_24" data-name="패스 24" d="M37.967,9.205V18.63l7.966,3.559Z" transform="translate(-37.967 -9.205)" fill="#fff"/>
              </g>
            </g>
          </g>
          <path id="패스_25" data-name="패스 25" d="M28.679,9.205,20.712,22.189l7.967-3.559Z" transform="translate(-11.149 -4.955)" fill="#fff"/>
          <g id="그룹_111" data-name="그룹 111" transform="translate(17.529 18.717)" opacity="0.602">
            <g id="그룹_110" data-name="그룹 110">
              <g id="그룹_109" data-name="그룹 109" clip-path="url(#clip-path-4)">
                <path id="패스_26" data-name="패스 26" d="M37.967,45.164v6.4L45.938,40.54Z" transform="translate(-37.967 -40.54)" fill="#fff"/>
              </g>
            </g>
          </g>
          <path id="패스_27" data-name="패스 27" d="M28.679,51.568v-6.4L20.712,40.54Z" transform="translate(-11.149 -21.823)" fill="#fff"/>
          <g id="그룹_114" data-name="그룹 114" transform="translate(17.529 13.677)" opacity="0.2">
            <g id="그룹_113" data-name="그룹 113">
              <g id="그룹_112" data-name="그룹 112" clip-path="url(#clip-path-5)">
                <path id="패스_28" data-name="패스 28" d="M37.967,37.8l7.966-4.625-7.966-3.557Z" transform="translate(-37.967 -29.623)" fill="#fff"/>
              </g>
            </g>
          </g>
          <g id="그룹_117" data-name="그룹 117" transform="translate(9.563 13.677)" opacity="0.602">
            <g id="그룹_116" data-name="그룹 116">
              <g id="그룹_115" data-name="그룹 115" clip-path="url(#clip-path-6)">
                <path id="패스_29" data-name="패스 29" d="M20.712,33.18,28.678,37.8V29.622Z" transform="translate(-20.712 -29.622)" fill="#fff"/>
              </g>
            </g>
          </g>
        </g>
      </g>
    </g>
  </g>
</svg>
