<svg id="그룹_69" data-name="그룹 69" xmlns="http://www.w3.org/2000/svg" xmlns:xlink="http://www.w3.org/1999/xlink" width="50" height="50" viewBox="0 0 50 50">
  <defs>
    <clipPath id="clip-path">
      <rect id="사각형_13717" data-name="사각형 13717" width="34" height="34" transform="translate(0 0)" fill="none"/>
    </clipPath>
  </defs>
  <rect id="사각형_27" data-name="사각형 27" width="50" height="50" rx="15" fill="#abcff5"/>
  <g id="그룹_37240" data-name="그룹 37240" transform="translate(8 8)">
    <g id="그룹_37240-2" data-name="그룹 37240" transform="translate(0 0)" clip-path="url(#clip-path)">
      <path id="패스_54779" data-name="패스 54779" d="M17,34A17,17,0,1,0,0,17,16.959,16.959,0,0,0,17,34" transform="translate(0 0)" fill="#2775ca"/>
      <path id="패스_54780" data-name="패스 54780" d="M35.883,29.766c0-2.478-1.488-3.329-4.462-3.684-2.125-.284-2.55-.85-2.55-1.841S29.58,22.613,31,22.613A2.1,2.1,0,0,1,33.333,24.1a.533.533,0,0,0,.5.353h1.134a.484.484,0,0,0,.5-.5v-.071a3.537,3.537,0,0,0-3.188-2.9v-1.7c0-.284-.212-.5-.566-.566H30.644c-.284,0-.5.213-.566.566v1.628c-2.125.284-3.471,1.7-3.471,3.471,0,2.338,1.416,3.259,4.391,3.612,1.984.354,2.621.779,2.621,1.913s-.991,1.912-2.337,1.912c-1.841,0-2.479-.778-2.691-1.841a.518.518,0,0,0-.5-.425h-1.2a.484.484,0,0,0-.5.5v.072c.283,1.771,1.416,3.046,3.754,3.4v1.7c0,.284.212.5.566.566h1.062c.284,0,.5-.212.566-.566v-1.7a3.883,3.883,0,0,0,3.541-3.755" transform="translate(-14.208 -10.075)" fill="#fff"/>
      <path id="패스_54781" data-name="패스 54781" d="M18.3,32.911a10.6,10.6,0,0,1,0-19.9.709.709,0,0,0,.425-.709v-.991a.536.536,0,0,0-.425-.566.424.424,0,0,0-.284.072,12.747,12.747,0,0,0,0,24.3.431.431,0,0,0,.638-.284c.071-.071.071-.141.071-.284V33.55a.945.945,0,0,0-.425-.639m7.507-22.1a.431.431,0,0,0-.638.284c-.072.072-.072.141-.072.284v.991a.942.942,0,0,0,.425.709,10.6,10.6,0,0,1,0,19.9.709.709,0,0,0-.425.709v.991a.536.536,0,0,0,.425.566.424.424,0,0,0,.284-.072,12.8,12.8,0,0,0,0-24.366" transform="translate(-4.915 -5.782)" fill="#fff"/>
    </g>
  </g>
</svg>
