<svg id="그룹_286" data-name="그룹 286" xmlns="http://www.w3.org/2000/svg" xmlns:xlink="http://www.w3.org/1999/xlink" width="50" height="50" viewBox="0 0 50 50">
  <defs>
    <clipPath id="clip-path">
      <rect id="사각형_13718" data-name="사각형 13718" width="34" height="34" transform="translate(0 0)" fill="none"/>
    </clipPath>
  </defs>
  <rect id="사각형_27" data-name="사각형 27" width="50" height="50" rx="15" fill="#687888"/>
  <g id="그룹_37241" data-name="그룹 37241" transform="translate(8 8)">
    <g id="그룹_37241-2" data-name="그룹 37241" transform="translate(0 0)" clip-path="url(#clip-path)">
      <path id="패스_54782" data-name="패스 54782" d="M34,17A17,17,0,1,1,17,0,17,17,0,0,1,34,17" transform="translate(0 0)" fill="#23292f"/>
      <path id="패스_54783" data-name="패스 54783" d="M31.42,15.48h3.439L27.7,22.567a6.688,6.688,0,0,1-9.388,0L11.152,15.48H14.6l5.438,5.382a4.23,4.23,0,0,0,5.944,0Z" transform="translate(-6.003 -8.333)" fill="#fff"/>
      <path id="패스_54784" data-name="패스 54784" d="M14.495,47.606H11.051l7.2-7.129a6.688,6.688,0,0,1,9.388,0l7.2,7.129H31.407l-5.484-5.428a4.23,4.23,0,0,0-5.944,0Z" transform="translate(-5.949 -20.753)" fill="#fff"/>
    </g>
  </g>
</svg>
