<svg xmlns="http://www.w3.org/2000/svg" width="100" height="100" viewBox="0 0 100 100">
  <g id="그룹_38244" data-name="그룹 38244" transform="translate(-55.788 -147)">
    <rect id="사각형_13662" data-name="사각형 13662" width="100" height="100" rx="50" transform="translate(55.788 147)" fill="#223643"/>
    <g id="sentiment_satisfied_FILL0_wght600_GRAD0_opsz48" transform="translate(65.502 156.714)">
      <g id="Artbox" transform="translate(0.286 0.286)">
        <rect id="사각형_13787" data-name="사각형 13787" width="80" height="80" transform="translate(0)" fill="#fff" stroke="#231f20" stroke-width="1" opacity="0"/>
      </g>
      <g id="안면인식_x28_2_x29_" transform="translate(26.361 29.007)">
        <g id="그룹_37320" data-name="그룹 37320">
          <path id="패스_54801" data-name="패스 54801" d="M290.065,188.529a3.887,3.887,0,0,0,3.865-3.865,3.645,3.645,0,0,0-1.155-2.742,3.732,3.732,0,0,0-2.71-1.122,3.676,3.676,0,0,0-2.742,1.122,3.727,3.727,0,0,0-1.122,2.742,3.833,3.833,0,0,0,3.864,3.865Z" transform="translate(-266.653 -180.8)" fill="#fff"/>
          <path id="패스_54802" data-name="패스 54802" d="M168.965,188.529a3.676,3.676,0,0,0,2.742-1.122,3.726,3.726,0,0,0,1.122-2.742,3.676,3.676,0,0,0-1.122-2.742,3.881,3.881,0,0,0-6.607,2.742,3.645,3.645,0,0,0,1.155,2.742A3.732,3.732,0,0,0,168.965,188.529Z" transform="translate(-164.972 -180.8)" fill="#fff"/>
          <path id="패스_54803" data-name="패스 54803" d="M178.01,295.964a14.992,14.992,0,0,0,8.242-2.405A13.776,13.776,0,0,0,191.72,287h-4.009a10.039,10.039,0,0,1-4.105,3.864,12.166,12.166,0,0,1-11.129.032,9.3,9.3,0,0,1-4.041-3.9H164.3a14.369,14.369,0,0,0,5.5,6.558A14.848,14.848,0,0,0,178.01,295.964Z" transform="translate(-164.3 -269.971)" fill="#fff"/>
        </g>
      </g>
    </g>
  </g>
</svg>
